<?xml version="1.0" encoding="UTF-8" standalone="no"?><!DOCTYPE svg PUBLIC "-//W3C//DTD SVG 1.1//EN" "http://www.w3.org/Graphics/SVG/1.1/DTD/svg11.dtd"><svg width="2096px" height="1422px" version="1.1" xmlns="http://www.w3.org/2000/svg" xmlns:xlink="http://www.w3.org/1999/xlink" xml:space="preserve" xmlns:serif="http://www.serif.com/" style="fill-rule:evenodd;clip-rule:evenodd;stroke-linejoin:round;stroke-miterlimit:2;"><g transform="matrix(5,0,0,5,-2377.02,-876.728)"><g transform="matrix(1,0,0,1,-35.4109,47.3457)"><g><path d="M655.689,379.46l25.386,-69.745c2.475,-6.802 8.221,-13.325 15.972,-18.135c7.752,-4.81 16.874,-7.512 25.361,-7.512l48.001,0c17.661,0 36.183,-11.492 41.335,-25.648l14.003,-38.472c5.152,-14.155 23.674,-25.648 41.335,-25.648c17.661,0 27.817,11.493 22.665,25.648l-59.651,163.891l10.904,0.914l-24.097,17.424c-0.619,0.471 -1.254,0.93 -1.902,1.375l-0.001,0.001l-0,0c-7.817,5.366 -17.665,8.756 -27.266,8.756l-112.002,-0c-6.679,-0 -12.533,-1.674 -16.797,-4.732l0,0l-18.539,-12.577l15.293,-15.54Zm100.717,-56.92c17.662,0 27.818,11.493 22.665,25.648c-5.152,14.156 -23.674,25.649 -41.335,25.649c-17.661,-0 -27.817,-11.493 -22.665,-25.649c5.153,-14.155 23.674,-25.648 41.335,-25.648Z" style="fill-opacity:0.2;"/><path d="M774.304,227.604c-0.084,0.788 -0.218,1.585 -0.402,2.389l-0.001,0.007l-0,0c-0.209,0.916 -0.483,1.841 -0.821,2.771l-0.001,0.002c-2.476,6.802 -8.221,13.326 -15.973,18.135c-7.751,4.81 -16.874,7.512 -25.36,7.512l-32.805,0.008c-17.414,0.34 -35.457,11.698 -40.532,25.64l-37.34,102.593c-5.156,14.165 -23.662,25.648 -41.335,25.648l-0.002,-0c-4.623,-0 -8.85,-0.802 -12.428,-2.309l0,0l-33.419,-10l86.115,-205.7l163.985,-24.3l-9.681,57.604Z" style="fill-opacity:0.2;"/></g><g transform="matrix(1,0,-0.291723,0.801503,-60,128)"><g transform="matrix(1,0,0,1,260,-60)"><path d="M400,119.998c-0,-10.608 4.214,-20.782 11.715,-28.283c7.501,-7.501 17.675,-11.715 28.283,-11.715l120.004,0c10.608,-0 20.782,4.214 28.283,11.715c7.501,7.501 11.715,17.675 11.715,28.283l-0,0.004c0,10.608 -4.214,20.782 -11.715,28.283c-7.501,7.501 -17.675,11.715 -28.283,11.715l-41.002,0.012c-21.614,0.53 -39,18.245 -39,39.988c0,-0 0,160 0,160l-0,0l0,0c-0,22.091 -17.909,40 -40,40l-0.002,-0c-10.608,0 -20.782,-4.214 -28.283,-11.715c-7.501,-7.501 -11.715,-17.675 -11.715,-28.283l0,-240.004Z" style="fill:white;"/></g><g transform="matrix(1,0,0,1,260,-60)"><path d="M660,160l0,-60c0,-22.077 17.923,-40 40,-40c22.077,0 40,17.923 40,40l0,260c-0,22.091 -17.909,40 -40,40l-140.002,-0c-10.608,0 -20.782,-4.214 -28.283,-11.715c-7.501,-7.501 -11.715,-17.675 -11.715,-28.283l0,-120.004c-0,-10.608 4.214,-20.782 11.715,-28.283c7.501,-7.501 17.675,-11.715 28.283,-11.715l60.002,0c22.077,-0 40,-17.923 40,-40Zm-40,100c22.077,0 40,17.923 40,40c-0,22.077 -17.923,40 -40,40c-22.077,0 -40,-17.923 -40,-40c-0,-22.077 17.923,-40 40,-40Z" style="fill:white;"/></g></g></g></g></svg>